<svg id="Layer_3" enable-background="new 0 0 64 64" height="512" viewBox="0 0 64 64" width="512" xmlns="http://www.w3.org/2000/svg"><path d="m8 29h6c.552 0 1-.447 1-1v-6c0-.553-.448-1-1-1h-6c-.552 0-1 .447-1 1v6c0 .553.448 1 1 1zm1-6h4v4h-4z"/><path d="m18 29h6c.552 0 1-.447 1-1v-6c0-.553-.448-1-1-1h-6c-.552 0-1 .447-1 1v6c0 .553.448 1 1 1zm1-6h4v4h-4z"/><path d="m8 39h6c.552 0 1-.447 1-1v-6c0-.553-.448-1-1-1h-6c-.552 0-1 .447-1 1v6c0 .553.448 1 1 1zm1-6h4v4h-4z"/><path d="m18 39h6c.552 0 1-.447 1-1v-6c0-.553-.448-1-1-1h-6c-.552 0-1 .447-1 1v6c0 .553.448 1 1 1zm1-6h4v4h-4z"/><path d="m14 49c.552 0 1-.447 1-1v-6c0-.553-.448-1-1-1h-6c-.552 0-1 .447-1 1v6c0 .553.448 1 1 1zm-5-6h4v4h-4z"/><path d="m18 49h6c.552 0 1-.447 1-1v-6c0-.553-.448-1-1-1h-6c-.552 0-1 .447-1 1v6c0 .553.448 1 1 1zm1-6h4v4h-4z"/><path d="m44 35h-8c-.552 0-1 .447-1 1v8c0 .553.448 1 1 1h8c.552 0 1-.447 1-1v-8c0-.553-.448-1-1-1zm-1 8h-6v-6h6z"/><path d="m49.132 38.496c.178.312.509.504.868.504s.69-.192.868-.504l10.449-18.286c1.101-1.927 1.683-4.117 1.683-6.335 0-3.411-1.328-6.618-3.743-9.032l-.103-.103c-2.412-2.412-5.618-3.74-9.029-3.74h-.251c-3.41 0-6.617 1.328-9.025 3.737l-.11.108c-.66.662-1.231 1.387-1.725 2.155h-19.014c-.552 0-1 .447-1 1v9h-15c-.552 0-1 .447-1 1v39h-1c-.552 0-1 .447-1 1v4c0 .553.448 1 1 1h48c.552 0 1-.447 1-1v-4c0-.553-.448-1-1-1h-1v-18.735zm-6.982-32.233.11-.108c2.034-2.035 4.739-3.155 7.615-3.155h.251c2.876 0 5.58 1.12 7.618 3.157l.103.103c2.033 2.034 3.153 4.738 3.153 7.615 0 1.87-.491 3.718-1.419 5.343l-9.581 16.766-9.581-16.767c-.928-1.624-1.419-3.472-1.419-5.342 0-2.877 1.12-5.581 3.15-7.612zm.85 21.502v3.235h-6v-6h4.42zm-38-8.765h22v35 3h-6v-1c0-2.757-2.243-5-5-5s-5 2.243-5 5v1h-6zm30 38h-6v-3c0-1.654 1.346-3 3-3s3 1.346 3 3zm-6-20h2v6h-2zm0-12h2v6h-2zm-1-8h-3v-4h6v6h-2v-1c0-.553-.448-1-1-1zm-9 40h-6v-1c0-1.654 1.346-3 3-3s3 1.346 3 3zm30 4h-46v-2h1 24 21zm-2-4h-10v-3c0-2.757-2.243-5-5-5-1.13 0-2.162.391-3 1.026v-5.026h3c.552 0 1-.447 1-1v-8c0-.553-.448-1-1-1h-3v-2h3c.552 0 1-.447 1-1v-8c0-.553-.448-1-1-1h-3v-2h3c.552 0 1-.447 1-1v-8c0-.553-.448-1-1-1h-8c-.552 0-1 .447-1 1v5h-2v-8h16.96c-.63 1.526-.96 3.175-.96 4.875 0 2.218.582 4.408 1.683 6.335l1.594 2.79h-4.277c-.552 0-1 .447-1 1v8c0 .553.448 1 1 1h8c.552 0 1-.447 1-1v-.735l2 3.5z"/><path d="m50 23c4.962 0 9-4.037 9-9s-4.038-9-9-9-9 4.037-9 9 4.038 9 9 9zm0-16c3.86 0 7 3.141 7 7s-3.14 7-7 7-7-3.141-7-7 3.14-7 7-7z"/><path d="m49 19h2v-4h4v-2h-4v-4h-2v4h-4v2h4z"/></svg>